<svg width="199" height="74" fill="none" xmlns="http://www.w3.org/2000/svg"><path d="M.268.126H20.65c5.275 0 9.23 1.462 11.868 4.386 2.637 2.924 3.985 7.253 4.042 12.986l.172 34.572c.057 7.281-1.204 12.757-3.784 16.426C30.368 72.166 26.097 74 20.134 74H.268V.126zm17.458 60.802c2.695 0 4.042-1.319 4.042-3.956V18.874c0-1.663-.143-2.895-.43-3.698-.23-.86-.688-1.433-1.376-1.72-.688-.287-1.749-.43-3.182-.43h-1.634v47.902h2.58zM42.68 74V.126h29.584v14.276H57.73v14.362h13.932v13.932H57.73v16.942h15.48V74H42.68zm35.441 0V.126h15.223l6.794 35.346V.126h14.276V74H99.966L92.57 37.02V74H78.121zm42.145 0V.126h14.276V74h-14.276zm20.172 0V.126h22.532l6.192 45.064L175.354.126h22.704V74h-13.502V20.766L176.042 74h-13.244l-9.03-53.234V74h-13.33z" fill="#151C22"/></svg>
